{
	"asset":{
		"generator":"Khronos glTF Blender I/O v3.5.30",
		"version":"2.0"
	},
	"scene":0,
	"scenes":[
		{
			"name":"Scene",
			"nodes":[
				0
			]
		}
	],
	"nodes":[
		{
			"mesh":0,
			"name":"hudiLP",
			"rotation":[
				0.7071068286895752,
				0,
				0,
				0.7071068286895752
			],
			"translation":[
				0,
				0.0237579345703125,
				-1.0451722145080566
			]
		}
	],
	"materials":[
		{
			"doubleSided":true,
			"name":"Material",
			"normalTexture":{
				"index":0
			},
			"pbrMetallicRoughness":{
				"baseColorTexture":{
					"index":1
				},
				"metallicRoughnessTexture":{
					"index":2
				}
			}
		}
	],
	"meshes":[
		{
			"name":"Cube",
			"primitives":[
				{
					"attributes":{
						"POSITION":0,
						"TEXCOORD_0":1,
						"NORMAL":2
					},
					"indices":3,
					"material":0
				}
			]
		}
	],
	"textures":[
		{
			"sampler":0,
			"source":0
		},
		{
			"sampler":0,
			"source":1
		},
		{
			"sampler":0,
			"source":2
		}
	],
	"images":[
		{
			"bufferView":4,
			"mimeType":"image/png",
			"name":"hudiLP_Mat_NormalOpenGL"
		},
		{
			"bufferView":5,
			"mimeType":"image/png",
			"name":"hudiLP_Mat_BaseColor"
		},
		{
			"bufferView":6,
			"mimeType":"image/png",
			"name":"hudiLP_Mat_Metallic-hudiLP_Mat_Roughness"
		}
	],
	"accessors":[
		{
			"bufferView":0,
			"componentType":5126,
			"count":2598,
			"max":[
				10.101855278015137,
				2.55462646484375,
				2.645280361175537
			],
			"min":[
				-10.099493026733398,
				-2.2633564472198486,
				-9.939962387084961
			],
			"type":"VEC3"
		},
		{
			"bufferView":1,
			"componentType":5126,
			"count":2598,
			"type":"VEC2"
		},
		{
			"bufferView":2,
			"componentType":5126,
			"count":2598,
			"type":"VEC3"
		},
		{
			"bufferView":3,
			"componentType":5123,
			"count":13236,
			"type":"SCALAR"
		}
	],
	"bufferViews":[
		{
			"buffer":0,
			"byteLength":31176,
			"byteOffset":0,
			"target":34962
		},
		{
			"buffer":0,
			"byteLength":20784,
			"byteOffset":31176,
			"target":34962
		},
		{
			"buffer":0,
			"byteLength":31176,
			"byteOffset":51960,
			"target":34962
		},
		{
			"buffer":0,
			"byteLength":26472,
			"byteOffset":83136,
			"target":34963
		},
		{
			"buffer":0,
			"byteLength":2018365,
			"byteOffset":109608
		},
		{
			"buffer":0,
			"byteLength":364939,
			"byteOffset":2127976
		},
		{
			"buffer":0,
			"byteLength":575227,
			"byteOffset":2492916
		}
	],
	"samplers":[
		{
			"magFilter":9729,
			"minFilter":9987
		}
	],
	"buffers":[
		{
			"byteLength":3068144,
			"uri":"data:application/octet-stream;base64,"
		}
	]
}
