{
	"asset":{
		"generator":"Khronos glTF Blender I/O v3.5.30",
		"version":"2.0"
	},
	"extensionsUsed":[
		"KHR_materials_specular",
		"KHR_materials_ior"
	],
	"scene":0,
	"scenes":[
		{
			"name":"Scene",
			"nodes":[
				0
			]
		}
	],
	"nodes":[
		{
			"mesh":0,
			"name":"Cube"
		}
	],
	"materials":[
		{
			"doubleSided":true,
			"extensions":{
				"KHR_materials_specular":{
					"specularColorFactor":[
						0.39881920817221245,
						0.39881920817221245,
						0.39881920817221245
					]
				},
				"KHR_materials_ior":{
					"ior":1.4500000476837158
				}
			},
			"name":"Material",
			"normalTexture":{
				"index":0
			},
			"pbrMetallicRoughness":{
				"baseColorTexture":{
					"index":1
				},
				"metallicFactor":0
			}
		}
	],
	"meshes":[
		{
			"name":"Cube.001",
			"primitives":[
				{
					"attributes":{
						"POSITION":0,
						"TEXCOORD_0":1,
						"NORMAL":2
					},
					"indices":3,
					"material":0
				}
			]
		}
	],
	"textures":[
		{
			"sampler":0,
			"source":0
		},
		{
			"sampler":0,
			"source":1
		}
	],
	"images":[
		{
			"bufferView":4,
			"mimeType":"image/png",
			"name":"meteor"
		},
		{
			"bufferView":5,
			"mimeType":"image/png",
			"name":"meteor"
		}
	],
	"accessors":[
		{
			"bufferView":0,
			"componentType":5126,
			"count":150,
			"max":[
				1.8857818841934204,
				1.7701703310012817,
				1.5711292028427124
			],
			"min":[
				-1.5473860502243042,
				-1.299660086631775,
				-1.8108059167861938
			],
			"type":"VEC3"
		},
		{
			"bufferView":1,
			"componentType":5126,
			"count":150,
			"type":"VEC2"
		},
		{
			"bufferView":2,
			"componentType":5126,
			"count":150,
			"type":"VEC3"
		},
		{
			"bufferView":3,
			"componentType":5123,
			"count":576,
			"type":"SCALAR"
		}
	],
	"bufferViews":[
		{
			"buffer":0,
			"byteLength":1800,
			"byteOffset":0,
			"target":34962
		},
		{
			"buffer":0,
			"byteLength":1200,
			"byteOffset":1800,
			"target":34962
		},
		{
			"buffer":0,
			"byteLength":1800,
			"byteOffset":3000,
			"target":34962
		},
		{
			"buffer":0,
			"byteLength":1152,
			"byteOffset":4800,
			"target":34963
		},
		{
			"buffer":0,
			"byteLength":1250102,
			"byteOffset":5952
		},
		{
			"buffer":0,
			"byteLength":685966,
			"byteOffset":1256056
		}
	],
	"samplers":[
		{
			"magFilter":9729,
			"minFilter":9987
		}
	],
	"buffers":[
		{
			"byteLength":1942024,
			"uri":"data:application/octet-stream;base64,"
		}
	]
}
