{
	"asset":{
		"generator":"Khronos glTF Blender I/O v3.5.30",
		"version":"2.0"
	},
	"extensionsUsed":[
		"KHR_materials_emissive_strength"
	],
	"scene":0,
	"scenes":[
		{
			"name":"Scene",
			"nodes":[
				0,
				1,
				2,
				3
			]
		}
	],
	"nodes":[
		{
			"mesh":0,
			"name":"Cube",
			"rotation":[
				0.5,
				-0.5,
				-0.5,
				0.5000000596046448
			],
			"translation":[
				0.006227731704711914,
				0.015550732612609863,
				-0.00932300090789795
			]
		},
		{
			"mesh":1,
			"name":"Cube.002",
			"rotation":[
				0.5,
				-0.5,
				-0.5,
				0.5000000596046448
			],
			"translation":[
				1.5358936786651611,
				-2.3519399166107178,
				-0.00932300090789795
			]
		},
		{
			"mesh":1,
			"name":"Cube.001",
			"rotation":[
				0.5,
				-0.5,
				-0.5,
				0.5000000596046448
			],
			"translation":[
				-1.4954688549041748,
				-2.3519399166107178,
				-0.00932323932647705
			]
		},
		{
			"mesh":2,
			"name":"Cube.003",
			"rotation":[
				0.5,
				-0.5,
				-0.5,
				0.5000000596046448
			],
			"translation":[
				0.006227731704711914,
				0.015550732612609863,
				-0.00932300090789795
			]
		}
	],
	"animations":[
		{
			"channels":[
				{
					"sampler":0,
					"target":{
						"node":0,
						"path":"translation"
					}
				},
				{
					"sampler":1,
					"target":{
						"node":0,
						"path":"rotation"
					}
				},
				{
					"sampler":2,
					"target":{
						"node":0,
						"path":"scale"
					}
				}
			],
			"name":"Cube",
			"samplers":[
				{
					"input":24,
					"interpolation":"LINEAR",
					"output":25
				},
				{
					"input":24,
					"interpolation":"LINEAR",
					"output":26
				},
				{
					"input":24,
					"interpolation":"LINEAR",
					"output":27
				}
			]
		},
		{
			"channels":[
				{
					"sampler":0,
					"target":{
						"node":1,
						"path":"translation"
					}
				},
				{
					"sampler":1,
					"target":{
						"node":1,
						"path":"rotation"
					}
				},
				{
					"sampler":2,
					"target":{
						"node":1,
						"path":"scale"
					}
				}
			],
			"name":"Cube.002",
			"samplers":[
				{
					"input":24,
					"interpolation":"LINEAR",
					"output":28
				},
				{
					"input":24,
					"interpolation":"LINEAR",
					"output":29
				},
				{
					"input":24,
					"interpolation":"LINEAR",
					"output":30
				}
			]
		},
		{
			"channels":[
				{
					"sampler":0,
					"target":{
						"node":1,
						"path":"weights"
					}
				}
			],
			"name":"KeyAction.001",
			"samplers":[
				{
					"input":31,
					"interpolation":"LINEAR",
					"output":32
				}
			]
		},
		{
			"channels":[
				{
					"sampler":0,
					"target":{
						"node":2,
						"path":"translation"
					}
				},
				{
					"sampler":1,
					"target":{
						"node":2,
						"path":"rotation"
					}
				},
				{
					"sampler":2,
					"target":{
						"node":2,
						"path":"scale"
					}
				}
			],
			"name":"Cube.001",
			"samplers":[
				{
					"input":24,
					"interpolation":"LINEAR",
					"output":33
				},
				{
					"input":24,
					"interpolation":"LINEAR",
					"output":34
				},
				{
					"input":24,
					"interpolation":"LINEAR",
					"output":35
				}
			]
		},
		{
			"channels":[
				{
					"sampler":0,
					"target":{
						"node":2,
						"path":"weights"
					}
				}
			],
			"name":"KeyAction.001",
			"samplers":[
				{
					"input":31,
					"interpolation":"LINEAR",
					"output":36
				}
			]
		},
		{
			"channels":[
				{
					"sampler":0,
					"target":{
						"node":3,
						"path":"translation"
					}
				},
				{
					"sampler":1,
					"target":{
						"node":3,
						"path":"rotation"
					}
				},
				{
					"sampler":2,
					"target":{
						"node":3,
						"path":"scale"
					}
				}
			],
			"name":"Cube.003",
			"samplers":[
				{
					"input":24,
					"interpolation":"LINEAR",
					"output":37
				},
				{
					"input":24,
					"interpolation":"LINEAR",
					"output":38
				},
				{
					"input":24,
					"interpolation":"LINEAR",
					"output":39
				}
			]
		}
	],
	"materials":[
		{
			"doubleSided":true,
			"name":"Material",
			"normalTexture":{
				"index":0
			},
			"pbrMetallicRoughness":{
				"baseColorTexture":{
					"index":1
				},
				"metallicFactor":0,
				"metallicRoughnessTexture":{
					"index":2
				}
			}
		},
		{
			"doubleSided":true,
			"emissiveFactor":[
				1,
				1,
				1
			],
			"emissiveTexture":{
				"index":3
			},
			"extensions":{
				"KHR_materials_emissive_strength":{
					"emissiveStrength":15
				}
			},
			"name":"Fire",
			"pbrMetallicRoughness":{
				"baseColorTexture":{
					"index":4
				},
				"metallicFactor":0
			}
		},
		{
			"doubleSided":true,
			"name":"Material.001",
			"normalTexture":{
				"index":5
			},
			"pbrMetallicRoughness":{
				"baseColorTexture":{
					"index":6
				},
				"metallicFactor":0,
				"metallicRoughnessTexture":{
					"index":7
				}
			}
		}
	],
	"meshes":[
		{
			"name":"Cube",
			"primitives":[
				{
					"attributes":{
						"POSITION":0,
						"TEXCOORD_0":1,
						"NORMAL":2
					},
					"indices":3,
					"material":0
				}
			]
		},
		{
			"extras":{
				"targetNames":[
					"Displace",
					"Displace.001",
					"Displace.002",
					"Displace.003",
					"Displace.004",
					"Displace.005"
				]
			},
			"name":"Cube.003",
			"primitives":[
				{
					"attributes":{
						"POSITION":4,
						"TEXCOORD_0":5,
						"NORMAL":6
					},
					"indices":7,
					"material":1,
					"targets":[
						{
							"POSITION":8,
							"NORMAL":9
						},
						{
							"POSITION":10,
							"NORMAL":11
						},
						{
							"POSITION":12,
							"NORMAL":13
						},
						{
							"POSITION":14,
							"NORMAL":15
						},
						{
							"POSITION":16,
							"NORMAL":17
						},
						{
							"POSITION":18,
							"NORMAL":19
						}
					]
				}
			],
			"weights":[
				1,
				0,
				0,
				0,
				0,
				0
			]
		},
		{
			"name":"Cube.001",
			"primitives":[
				{
					"attributes":{
						"POSITION":20,
						"TEXCOORD_0":21,
						"NORMAL":22
					},
					"indices":23,
					"material":2
				}
			]
		}
	],
	"textures":[
		{
			"sampler":0,
			"source":0
		},
		{
			"sampler":0,
			"source":1
		},
		{
			"sampler":0,
			"source":2
		},
		{
			"sampler":0,
			"source":3
		},
		{
			"sampler":0,
			"source":3
		},
		{
			"sampler":0,
			"source":4
		},
		{
			"sampler":0,
			"source":5
		},
		{
			"sampler":0,
			"source":6
		}
	],
	"images":[
		{
			"bufferView":4,
			"mimeType":"image/png",
			"name":"norm_space"
		},
		{
			"bufferView":5,
			"mimeType":"image/png",
			"name":"difaf_space"
		},
		{
			"bufferView":6,
			"mimeType":"image/png",
			"name":"routh_space"
		},
		{
			"bufferView":11,
			"mimeType":"image/png",
			"name":"tex"
		},
		{
			"bufferView":28,
			"mimeType":"image/png",
			"name":"norm_glass"
		},
		{
			"bufferView":29,
			"mimeType":"image/png",
			"name":"diff_glass"
		},
		{
			"bufferView":30,
			"mimeType":"image/png",
			"name":"roth_glass"
		}
	],
	"accessors":[
		{
			"bufferView":0,
			"componentType":5126,
			"count":864,
			"max":[
				2.9629313945770264,
				1.0200973749160767,
				2.6401593685150146
			],
			"min":[
				-2.6824307441711426,
				-0.5989788770675659,
				-2.6401593685150146
			],
			"type":"VEC3"
		},
		{
			"bufferView":1,
			"componentType":5126,
			"count":864,
			"type":"VEC2"
		},
		{
			"bufferView":2,
			"componentType":5126,
			"count":864,
			"type":"VEC3"
		},
		{
			"bufferView":3,
			"componentType":5123,
			"count":2328,
			"type":"SCALAR"
		},
		{
			"bufferView":7,
			"componentType":5126,
			"count":256,
			"max":[
				-0.2529967725276947,
				0.1614353507757187,
				0.1614353507757187
			],
			"min":[
				-0.2529968321323395,
				-0.1614353507757187,
				-0.1614353507757187
			],
			"type":"VEC3"
		},
		{
			"bufferView":8,
			"componentType":5126,
			"count":256,
			"type":"VEC2"
		},
		{
			"bufferView":9,
			"componentType":5126,
			"count":256,
			"type":"VEC3"
		},
		{
			"bufferView":10,
			"componentType":5123,
			"count":384,
			"type":"SCALAR"
		},
		{
			"bufferView":12,
			"componentType":5126,
			"count":256,
			"max":[
				3,
				0,
				0
			],
			"min":[
				-1,
				0,
				0
			],
			"type":"VEC3"
		},
		{
			"bufferView":13,
			"componentType":5126,
			"count":256,
			"type":"VEC3"
		},
		{
			"bufferView":14,
			"componentType":5126,
			"count":256,
			"max":[
				3,
				0,
				0
			],
			"min":[
				-1,
				0,
				0
			],
			"type":"VEC3"
		},
		{
			"bufferView":15,
			"componentType":5126,
			"count":256,
			"type":"VEC3"
		},
		{
			"bufferView":16,
			"componentType":5126,
			"count":256,
			"max":[
				3,
				0,
				0
			],
			"min":[
				-1,
				0,
				0
			],
			"type":"VEC3"
		},
		{
			"bufferView":17,
			"componentType":5126,
			"count":256,
			"type":"VEC3"
		},
		{
			"bufferView":18,
			"componentType":5126,
			"count":256,
			"max":[
				1.6666667461395264,
				0,
				0
			],
			"min":[
				-1,
				0,
				0
			],
			"type":"VEC3"
		},
		{
			"bufferView":19,
			"componentType":5126,
			"count":256,
			"type":"VEC3"
		},
		{
			"bufferView":20,
			"componentType":5126,
			"count":256,
			"max":[
				3,
				0,
				0
			],
			"min":[
				-1,
				0,
				0
			],
			"type":"VEC3"
		},
		{
			"bufferView":21,
			"componentType":5126,
			"count":256,
			"type":"VEC3"
		},
		{
			"bufferView":22,
			"componentType":5126,
			"count":256,
			"max":[
				1.6666667461395264,
				0,
				0
			],
			"min":[
				-1,
				0,
				0
			],
			"type":"VEC3"
		},
		{
			"bufferView":23,
			"componentType":5126,
			"count":256,
			"type":"VEC3"
		},
		{
			"bufferView":24,
			"componentType":5126,
			"count":33,
			"max":[
				-1.1482179164886475,
				1.0464651584625244,
				0.3846968412399292
			],
			"min":[
				-2.551220655441284,
				0.5545425415039062,
				-0.3846968412399292
			],
			"type":"VEC3"
		},
		{
			"bufferView":25,
			"componentType":5126,
			"count":33,
			"type":"VEC2"
		},
		{
			"bufferView":26,
			"componentType":5126,
			"count":33,
			"type":"VEC3"
		},
		{
			"bufferView":27,
			"componentType":5123,
			"count":72,
			"type":"SCALAR"
		},
		{
			"bufferView":31,
			"componentType":5126,
			"count":251,
			"max":[
				4.166666666666667
			],
			"min":[
				0
			],
			"type":"SCALAR"
		},
		{
			"bufferView":32,
			"componentType":5126,
			"count":251,
			"type":"VEC3"
		},
		{
			"bufferView":33,
			"componentType":5126,
			"count":251,
			"type":"VEC4"
		},
		{
			"bufferView":34,
			"componentType":5126,
			"count":251,
			"type":"VEC3"
		},
		{
			"bufferView":35,
			"componentType":5126,
			"count":251,
			"type":"VEC3"
		},
		{
			"bufferView":36,
			"componentType":5126,
			"count":251,
			"type":"VEC4"
		},
		{
			"bufferView":37,
			"componentType":5126,
			"count":251,
			"type":"VEC3"
		},
		{
			"bufferView":38,
			"componentType":5126,
			"count":20,
			"max":[
				0.3333333333333333
			],
			"min":[
				0.016666666666666666
			],
			"type":"SCALAR"
		},
		{
			"bufferView":39,
			"componentType":5126,
			"count":120,
			"type":"SCALAR"
		},
		{
			"bufferView":40,
			"componentType":5126,
			"count":251,
			"type":"VEC3"
		},
		{
			"bufferView":41,
			"componentType":5126,
			"count":251,
			"type":"VEC4"
		},
		{
			"bufferView":42,
			"componentType":5126,
			"count":251,
			"type":"VEC3"
		},
		{
			"bufferView":43,
			"componentType":5126,
			"count":120,
			"type":"SCALAR"
		},
		{
			"bufferView":44,
			"componentType":5126,
			"count":251,
			"type":"VEC3"
		},
		{
			"bufferView":45,
			"componentType":5126,
			"count":251,
			"type":"VEC4"
		},
		{
			"bufferView":46,
			"componentType":5126,
			"count":251,
			"type":"VEC3"
		}
	],
	"bufferViews":[
		{
			"buffer":0,
			"byteLength":10368,
			"byteOffset":0,
			"target":34962
		},
		{
			"buffer":0,
			"byteLength":6912,
			"byteOffset":10368,
			"target":34962
		},
		{
			"buffer":0,
			"byteLength":10368,
			"byteOffset":17280,
			"target":34962
		},
		{
			"buffer":0,
			"byteLength":4656,
			"byteOffset":27648,
			"target":34963
		},
		{
			"buffer":0,
			"byteLength":1751971,
			"byteOffset":32304
		},
		{
			"buffer":0,
			"byteLength":45903,
			"byteOffset":1784276
		},
		{
			"buffer":0,
			"byteLength":780979,
			"byteOffset":1830180
		},
		{
			"buffer":0,
			"byteLength":3072,
			"byteOffset":2611160,
			"target":34962
		},
		{
			"buffer":0,
			"byteLength":2048,
			"byteOffset":2614232,
			"target":34962
		},
		{
			"buffer":0,
			"byteLength":3072,
			"byteOffset":2616280,
			"target":34962
		},
		{
			"buffer":0,
			"byteLength":768,
			"byteOffset":2619352,
			"target":34963
		},
		{
			"buffer":0,
			"byteLength":41959,
			"byteOffset":2620120
		},
		{
			"buffer":0,
			"byteLength":3072,
			"byteOffset":2662080,
			"target":34962
		},
		{
			"buffer":0,
			"byteLength":3072,
			"byteOffset":2665152,
			"target":34962
		},
		{
			"buffer":0,
			"byteLength":3072,
			"byteOffset":2668224,
			"target":34962
		},
		{
			"buffer":0,
			"byteLength":3072,
			"byteOffset":2671296,
			"target":34962
		},
		{
			"buffer":0,
			"byteLength":3072,
			"byteOffset":2674368,
			"target":34962
		},
		{
			"buffer":0,
			"byteLength":3072,
			"byteOffset":2677440,
			"target":34962
		},
		{
			"buffer":0,
			"byteLength":3072,
			"byteOffset":2680512,
			"target":34962
		},
		{
			"buffer":0,
			"byteLength":3072,
			"byteOffset":2683584,
			"target":34962
		},
		{
			"buffer":0,
			"byteLength":3072,
			"byteOffset":2686656,
			"target":34962
		},
		{
			"buffer":0,
			"byteLength":3072,
			"byteOffset":2689728,
			"target":34962
		},
		{
			"buffer":0,
			"byteLength":3072,
			"byteOffset":2692800,
			"target":34962
		},
		{
			"buffer":0,
			"byteLength":3072,
			"byteOffset":2695872,
			"target":34962
		},
		{
			"buffer":0,
			"byteLength":396,
			"byteOffset":2698944,
			"target":34962
		},
		{
			"buffer":0,
			"byteLength":264,
			"byteOffset":2699340,
			"target":34962
		},
		{
			"buffer":0,
			"byteLength":396,
			"byteOffset":2699604,
			"target":34962
		},
		{
			"buffer":0,
			"byteLength":144,
			"byteOffset":2700000,
			"target":34963
		},
		{
			"buffer":0,
			"byteLength":41924,
			"byteOffset":2700144
		},
		{
			"buffer":0,
			"byteLength":52204,
			"byteOffset":2742068
		},
		{
			"buffer":0,
			"byteLength":57145,
			"byteOffset":2794272
		},
		{
			"buffer":0,
			"byteLength":1004,
			"byteOffset":2851420
		},
		{
			"buffer":0,
			"byteLength":3012,
			"byteOffset":2852424
		},
		{
			"buffer":0,
			"byteLength":4016,
			"byteOffset":2855436
		},
		{
			"buffer":0,
			"byteLength":3012,
			"byteOffset":2859452
		},
		{
			"buffer":0,
			"byteLength":3012,
			"byteOffset":2862464
		},
		{
			"buffer":0,
			"byteLength":4016,
			"byteOffset":2865476
		},
		{
			"buffer":0,
			"byteLength":3012,
			"byteOffset":2869492
		},
		{
			"buffer":0,
			"byteLength":80,
			"byteOffset":2872504
		},
		{
			"buffer":0,
			"byteLength":480,
			"byteOffset":2872584
		},
		{
			"buffer":0,
			"byteLength":3012,
			"byteOffset":2873064
		},
		{
			"buffer":0,
			"byteLength":4016,
			"byteOffset":2876076
		},
		{
			"buffer":0,
			"byteLength":3012,
			"byteOffset":2880092
		},
		{
			"buffer":0,
			"byteLength":480,
			"byteOffset":2883104
		},
		{
			"buffer":0,
			"byteLength":3012,
			"byteOffset":2883584
		},
		{
			"buffer":0,
			"byteLength":4016,
			"byteOffset":2886596
		},
		{
			"buffer":0,
			"byteLength":3012,
			"byteOffset":2890612
		}
	],
	"samplers":[
		{
			"magFilter":9729,
			"minFilter":9987
		}
	],
	"buffers":[
		{
			"byteLength":2893624,
			"uri":"data:application/octet-stream;base64,"
		}
	]
}
