{
	"asset":{
		"generator":"Khronos glTF Blender I/O v3.6.18",
		"version":"2.0"
	},
	"scene":0,
	"scenes":[
		{
			"name":"Scene",
			"nodes":[
				0,
				1,
				2
			]
		}
	],
	"nodes":[
		{
			"mesh":0,
			"name":"Cube",
			"rotation":[
				0.5,
				-0.5,
				-0.5,
				0.5000000596046448
			],
			"translation":[
				0.006227731704711914,
				0.015550732612609863,
				-0.00932300090789795
			]
		},
		{
			"mesh":1,
			"name":"Cube.002",
			"rotation":[
				0.5,
				-0.5,
				-0.5,
				0.5000000596046448
			],
			"translation":[
				1.5358936786651611,
				-2.3519399166107178,
				-0.00932300090789795
			]
		},
		{
			"mesh":1,
			"name":"Cube.001",
			"rotation":[
				0.5,
				-0.5,
				-0.5,
				0.5000000596046448
			],
			"translation":[
				-1.4954688549041748,
				-2.3519399166107178,
				-0.00932323932647705
			]
		}
	],
	"animations":[
		{
			"channels":[
				{
					"sampler":0,
					"target":{
						"node":1,
						"path":"weights"
					}
				}
			],
			"name":"KeyAction.001",
			"samplers":[
				{
					"input":24,
					"interpolation":"LINEAR",
					"output":25
				}
			]
		},
		{
			"channels":[
				{
					"sampler":0,
					"target":{
						"node":2,
						"path":"weights"
					}
				}
			],
			"name":"KeyAction.001",
			"samplers":[
				{
					"input":24,
					"interpolation":"LINEAR",
					"output":26
				}
			]
		}
	],
	"materials":[
		{
			"doubleSided":true,
			"name":"Material",
			"pbrMetallicRoughness":{
				"baseColorFactor":[
					0.12623831629753113,
					0.12623831629753113,
					0.12623831629753113,
					1
				]
			}
		},
		{
			"doubleSided":true,
			"name":"Material.001",
			"pbrMetallicRoughness":{
				"baseColorFactor":[
					0,
					0.2973172664642334,
					0.4993039667606354,
					1
				],
				"metallicFactor":0,
				"roughnessFactor":0
			}
		},
		{
			"doubleSided":true,
			"emissiveFactor":[
				1,
				1,
				1
			],
			"emissiveTexture":{
				"index":0
			},
			"name":"Fire",
			"pbrMetallicRoughness":{
				"baseColorTexture":{
					"index":1
				},
				"metallicFactor":0,
				"roughnessFactor":0
			}
		}
	],
	"meshes":[
		{
			"name":"Cube",
			"primitives":[
				{
					"attributes":{
						"POSITION":0,
						"NORMAL":1,
						"TEXCOORD_0":2
					},
					"indices":3,
					"material":0
				},
				{
					"attributes":{
						"POSITION":4,
						"NORMAL":5,
						"TEXCOORD_0":6
					},
					"indices":7,
					"material":1
				}
			]
		},
		{
			"extras":{
				"targetNames":[
					"Displace",
					"Displace.001",
					"Displace.002",
					"Displace.003",
					"Displace.004",
					"Displace.005"
				]
			},
			"name":"Cube.003",
			"primitives":[
				{
					"attributes":{
						"POSITION":8,
						"NORMAL":9,
						"TEXCOORD_0":10
					},
					"indices":11,
					"material":2,
					"targets":[
						{
							"POSITION":12,
							"NORMAL":13
						},
						{
							"POSITION":14,
							"NORMAL":15
						},
						{
							"POSITION":16,
							"NORMAL":17
						},
						{
							"POSITION":18,
							"NORMAL":19
						},
						{
							"POSITION":20,
							"NORMAL":21
						},
						{
							"POSITION":22,
							"NORMAL":23
						}
					]
				}
			],
			"weights":[
				1,
				0,
				0,
				0,
				0,
				0
			]
		}
	],
	"textures":[
		{
			"sampler":0,
			"source":0
		},
		{
			"sampler":0,
			"source":0
		}
	],
	"images":[
		{
			"bufferView":12,
			"mimeType":"image/png",
			"name":"tex"
		}
	],
	"accessors":[
		{
			"bufferView":0,
			"componentType":5126,
			"count":794,
			"max":[
				2.9629313945770264,
				1.0200973749160767,
				2.6401593685150146
			],
			"min":[
				-2.6824307441711426,
				-0.5989788770675659,
				-2.6401593685150146
			],
			"type":"VEC3"
		},
		{
			"bufferView":1,
			"componentType":5126,
			"count":794,
			"type":"VEC3"
		},
		{
			"bufferView":2,
			"componentType":5126,
			"count":794,
			"type":"VEC2"
		},
		{
			"bufferView":3,
			"componentType":5123,
			"count":2328,
			"type":"SCALAR"
		},
		{
			"bufferView":4,
			"componentType":5126,
			"count":33,
			"max":[
				-1.1482179164886475,
				1.0464651584625244,
				0.3846968412399292
			],
			"min":[
				-2.551220655441284,
				0.5545425415039062,
				-0.3846968412399292
			],
			"type":"VEC3"
		},
		{
			"bufferView":5,
			"componentType":5126,
			"count":33,
			"type":"VEC3"
		},
		{
			"bufferView":6,
			"componentType":5126,
			"count":33,
			"type":"VEC2"
		},
		{
			"bufferView":7,
			"componentType":5123,
			"count":72,
			"type":"SCALAR"
		},
		{
			"bufferView":8,
			"componentType":5126,
			"count":256,
			"max":[
				-0.2529967725276947,
				0.1614353507757187,
				0.1614353507757187
			],
			"min":[
				-0.2529968321323395,
				-0.1614353507757187,
				-0.1614353507757187
			],
			"type":"VEC3"
		},
		{
			"bufferView":9,
			"componentType":5126,
			"count":256,
			"type":"VEC3"
		},
		{
			"bufferView":10,
			"componentType":5126,
			"count":256,
			"type":"VEC2"
		},
		{
			"bufferView":11,
			"componentType":5123,
			"count":384,
			"type":"SCALAR"
		},
		{
			"bufferView":13,
			"componentType":5126,
			"count":256,
			"max":[
				3,
				0,
				0
			],
			"min":[
				-1,
				0,
				0
			],
			"type":"VEC3"
		},
		{
			"bufferView":14,
			"componentType":5126,
			"count":256,
			"type":"VEC3"
		},
		{
			"bufferView":15,
			"componentType":5126,
			"count":256,
			"max":[
				3,
				0,
				0
			],
			"min":[
				-1,
				0,
				0
			],
			"type":"VEC3"
		},
		{
			"bufferView":16,
			"componentType":5126,
			"count":256,
			"type":"VEC3"
		},
		{
			"bufferView":17,
			"componentType":5126,
			"count":256,
			"max":[
				3,
				0,
				0
			],
			"min":[
				-1,
				0,
				0
			],
			"type":"VEC3"
		},
		{
			"bufferView":18,
			"componentType":5126,
			"count":256,
			"type":"VEC3"
		},
		{
			"bufferView":19,
			"componentType":5126,
			"count":256,
			"max":[
				1.6666667461395264,
				0,
				0
			],
			"min":[
				-1,
				0,
				0
			],
			"type":"VEC3"
		},
		{
			"bufferView":20,
			"componentType":5126,
			"count":256,
			"type":"VEC3"
		},
		{
			"bufferView":21,
			"componentType":5126,
			"count":256,
			"max":[
				3,
				0,
				0
			],
			"min":[
				-1,
				0,
				0
			],
			"type":"VEC3"
		},
		{
			"bufferView":22,
			"componentType":5126,
			"count":256,
			"type":"VEC3"
		},
		{
			"bufferView":23,
			"componentType":5126,
			"count":256,
			"max":[
				1.6666667461395264,
				0,
				0
			],
			"min":[
				-1,
				0,
				0
			],
			"type":"VEC3"
		},
		{
			"bufferView":24,
			"componentType":5126,
			"count":256,
			"type":"VEC3"
		},
		{
			"bufferView":25,
			"componentType":5126,
			"count":20,
			"max":[
				0.3333333333333333
			],
			"min":[
				0.016666666666666666
			],
			"type":"SCALAR"
		},
		{
			"bufferView":26,
			"componentType":5126,
			"count":120,
			"type":"SCALAR"
		},
		{
			"bufferView":27,
			"componentType":5126,
			"count":120,
			"type":"SCALAR"
		}
	],
	"bufferViews":[
		{
			"buffer":0,
			"byteLength":9528,
			"byteOffset":0,
			"target":34962
		},
		{
			"buffer":0,
			"byteLength":9528,
			"byteOffset":9528,
			"target":34962
		},
		{
			"buffer":0,
			"byteLength":6352,
			"byteOffset":19056,
			"target":34962
		},
		{
			"buffer":0,
			"byteLength":4656,
			"byteOffset":25408,
			"target":34963
		},
		{
			"buffer":0,
			"byteLength":396,
			"byteOffset":30064,
			"target":34962
		},
		{
			"buffer":0,
			"byteLength":396,
			"byteOffset":30460,
			"target":34962
		},
		{
			"buffer":0,
			"byteLength":264,
			"byteOffset":30856,
			"target":34962
		},
		{
			"buffer":0,
			"byteLength":144,
			"byteOffset":31120,
			"target":34963
		},
		{
			"buffer":0,
			"byteLength":3072,
			"byteOffset":31264,
			"target":34962
		},
		{
			"buffer":0,
			"byteLength":3072,
			"byteOffset":34336,
			"target":34962
		},
		{
			"buffer":0,
			"byteLength":2048,
			"byteOffset":37408,
			"target":34962
		},
		{
			"buffer":0,
			"byteLength":768,
			"byteOffset":39456,
			"target":34963
		},
		{
			"buffer":0,
			"byteLength":129829,
			"byteOffset":40224
		},
		{
			"buffer":0,
			"byteLength":3072,
			"byteOffset":170056,
			"target":34962
		},
		{
			"buffer":0,
			"byteLength":3072,
			"byteOffset":173128,
			"target":34962
		},
		{
			"buffer":0,
			"byteLength":3072,
			"byteOffset":176200,
			"target":34962
		},
		{
			"buffer":0,
			"byteLength":3072,
			"byteOffset":179272,
			"target":34962
		},
		{
			"buffer":0,
			"byteLength":3072,
			"byteOffset":182344,
			"target":34962
		},
		{
			"buffer":0,
			"byteLength":3072,
			"byteOffset":185416,
			"target":34962
		},
		{
			"buffer":0,
			"byteLength":3072,
			"byteOffset":188488,
			"target":34962
		},
		{
			"buffer":0,
			"byteLength":3072,
			"byteOffset":191560,
			"target":34962
		},
		{
			"buffer":0,
			"byteLength":3072,
			"byteOffset":194632,
			"target":34962
		},
		{
			"buffer":0,
			"byteLength":3072,
			"byteOffset":197704,
			"target":34962
		},
		{
			"buffer":0,
			"byteLength":3072,
			"byteOffset":200776,
			"target":34962
		},
		{
			"buffer":0,
			"byteLength":3072,
			"byteOffset":203848,
			"target":34962
		},
		{
			"buffer":0,
			"byteLength":80,
			"byteOffset":206920
		},
		{
			"buffer":0,
			"byteLength":480,
			"byteOffset":207000
		},
		{
			"buffer":0,
			"byteLength":480,
			"byteOffset":207480
		}
	],
	"samplers":[
		{
			"magFilter":9729,
			"minFilter":9987
		}
	],
	"buffers":[
		{
			"byteLength":207960,
			"uri":"data:application/octet-stream;base64,"
		}
	]
}
